<?xml version="1.0" encoding="UTF-8" standalone="no"?>
<svg xmlns="http://www.w3.org/2000/svg" 
   xml:space="preserve" 
   width="2000"
   height="1500"
   data-id="lg_Oe2ouzcP6iO2SnF1y4"
   data-version="1" 
   viewBox="0 0 2000 1500">
   <path fill="#130912" stroke="transparent" d="M0 0h2000v1500H0z"/>
      <g data-padding="20">
         <g transform="translate(-1651.786 -1240.561)scale(2.5829)">
            <g transform="translate(439.76 193.1)scale(1.07)">
               <filter id="a" width="140%" height="140%" x="-20%" y="-20%">
                  <feGaussianBlur in="SourceAlpha"/>
                  <feOffset result="oBlur"/>
      <feFlood flood-color="#f75cff" flood-opacity="1"/>
      <feComposite in2="oBlur" operator="in"/>
      <feMerge>
      <feMergeNode/>
      <feMergeNode in="SourceGraphic"/>
      </feMerge>
      </filter>
      <g filter="url(#a)">
      <rect width="225.383" height="359.34" x="584.856" y="360.112" fill="none" rx="0" ry="0"/>
      <path fill="#fafafa" d="M702.497 639.182h-93.81v-222.6h92.86q35.29 0 56.12 14.23t20.83 42.37q0 9.86-3.66 17.89-3.65 8.03-10.17 14.31t-15.11 10.73q17.65 6.68 28.07 21.55 10.41 14.86 10.41 34.42 0 20.83-10.41 35.85-10.42 15.03-29.58 23.14t-45.55 8.11m-29.57-91.27v45.16h20.98q13.36 0 20.2-5.81 6.83-5.8 6.83-16.77 0-10.5-6.2-16.54t-17.65-6.04Zm0-85.22v42.61h20.35q7.31 0 12.48-2.55 5.17-2.54 7.95-7.39t2.78-11.69q0-10.01-6.2-15.5-6.2-5.48-17.97-5.48Z"/>
      </g></g>
      <rect width="276.332" height="279.439" x="559.381" y="400.062" fill="#fafafa" rx="10" ry="10" transform="translate(148.08 175.09)scale(1.07)"/></g><path fill="transparent" stroke="transparent" stroke-width="2.679" d="M250 235.714h1500v1028.572H250z"/>
   </g>
</svg>